<svg xmlns="http://www.w3.org/2000/svg" viewBox="0 0 800 500" fill="none" stroke="#F5EDE0" stroke-width="1.2" stroke-linecap="round" stroke-linejoin="round">
  <title>Carré d'Or — élégance Belle Époque de Nice</title>

  <!-- Ciel etoile -->
  <circle cx="100" cy="60" r="1.2" fill="#F5EDE0" opacity=".5"/>
  <circle cx="220" cy="40" r="1" fill="#F5EDE0" opacity=".4"/>
  <circle cx="380" cy="50" r="1.3" fill="#F5EDE0" opacity=".5"/>
  <circle cx="540" cy="80" r="1" fill="#F5EDE0" opacity=".4"/>
  <circle cx="700" cy="50" r="1.2" fill="#F5EDE0" opacity=".5"/>

  <!-- Hotel Negresco façade -->
  <!-- Corps principal -->
  <path d="M 150 380 L 150 200 L 200 180 L 600 180 L 650 200 L 650 380" />
  <!-- Etage 1 -->
  <line x1="150" y1="240" x2="650" y2="240" />
  <!-- Etage 2 -->
  <line x1="150" y1="290" x2="650" y2="290" />
  <!-- Etage 3 -->
  <line x1="150" y1="340" x2="650" y2="340" />

  <!-- Dôme central (signature Negresco) -->
  <path d="M 350 180 Q 350 130 400 110 Q 450 130 450 180" />
  <path d="M 380 180 Q 380 145 400 130 Q 420 145 420 180" opacity=".4"/>
  <!-- Sommet du dome -->
  <line x1="400" y1="110" x2="400" y2="85" />
  <circle cx="400" cy="80" r="3" fill="#F5EDE0" />
  <line x1="400" y1="77" x2="400" y2="65" />
  <!-- Drapeau au sommet -->
  <path d="M 400 65 L 422 70 L 400 78 Z" />

  <!-- Petits domes secondaires -->
  <path d="M 230 200 Q 240 185 250 200" opacity=".5"/>
  <path d="M 550 200 Q 560 185 570 200" opacity=".5"/>

  <!-- Fenetres rdc -->
  <g stroke-width="0.9">
  <rect x="170" y="210" width="14" height="22" />
  <rect x="200" y="210" width="14" height="22" />
  <rect x="230" y="215" width="14" height="22" />
  <rect x="260" y="215" width="14" height="22" />
  <rect x="290" y="215" width="14" height="22" />
  <!-- Entrée principale au centre -->
  <path d="M 320 240 L 320 200 Q 320 195 325 195 L 360 195 Q 365 195 365 200 L 365 240" />
  <rect x="378" y="215" width="14" height="22" />
  <rect x="408" y="215" width="14" height="22" />
  <path d="M 438 240 L 438 200 Q 438 195 443 195 L 478 195 Q 483 195 483 200 L 483 240" />
  <rect x="500" y="215" width="14" height="22" />
  <rect x="530" y="215" width="14" height="22" />
  <rect x="560" y="215" width="14" height="22" />
  <rect x="590" y="210" width="14" height="22" />
  <rect x="620" y="210" width="14" height="22" />
  <!-- Etage 1 -->
  <rect x="170" y="255" width="14" height="22" />
  <rect x="200" y="255" width="14" height="22" />
  <rect x="230" y="255" width="14" height="22" />
  <rect x="260" y="255" width="14" height="22" />
  <rect x="290" y="255" width="14" height="22" />
  <rect x="320" y="255" width="14" height="22" />
  <rect x="350" y="255" width="14" height="22" />
  <rect x="378" y="255" width="14" height="22" />
  <rect x="408" y="255" width="14" height="22" />
  <rect x="438" y="255" width="14" height="22" />
  <rect x="468" y="255" width="14" height="22" />
  <rect x="500" y="255" width="14" height="22" />
  <rect x="530" y="255" width="14" height="22" />
  <rect x="560" y="255" width="14" height="22" />
  <rect x="590" y="255" width="14" height="22" />
  <rect x="620" y="255" width="14" height="22" />
  <!-- Etage 2 -->
  <rect x="170" y="305" width="14" height="22" />
  <rect x="200" y="305" width="14" height="22" />
  <rect x="230" y="305" width="14" height="22" />
  <rect x="260" y="305" width="14" height="22" />
  <rect x="290" y="305" width="14" height="22" />
  <rect x="320" y="305" width="14" height="22" />
  <rect x="350" y="305" width="14" height="22" />
  <rect x="378" y="305" width="14" height="22" />
  <rect x="408" y="305" width="14" height="22" />
  <rect x="438" y="305" width="14" height="22" />
  <rect x="468" y="305" width="14" height="22" />
  <rect x="500" y="305" width="14" height="22" />
  <rect x="530" y="305" width="14" height="22" />
  <rect x="560" y="305" width="14" height="22" />
  <rect x="590" y="305" width="14" height="22" />
  <rect x="620" y="305" width="14" height="22" />
  <!-- Etage 3 (mansardes) -->
  <rect x="170" y="350" width="14" height="22" />
  <rect x="200" y="350" width="14" height="22" />
  <rect x="290" y="350" width="14" height="22" />
  <rect x="350" y="350" width="14" height="22" />
  <rect x="440" y="350" width="14" height="22" />
  <rect x="500" y="350" width="14" height="22" />
  <rect x="590" y="350" width="14" height="22" />
  <rect x="620" y="350" width="14" height="22" />
  </g>

  <!-- Lampadaires Belle Epoque devant -->
  <line x1="100" y1="395" x2="100" y2="290" />
  <circle cx="100" cy="282" r="5" />
  <circle cx="100" cy="282" r="10" opacity=".3"/>
  <line x1="90" y1="292" x2="110" y2="292" opacity=".5"/>

  <line x1="700" y1="395" x2="700" y2="290" />
  <circle cx="700" cy="282" r="5" />
  <circle cx="700" cy="282" r="10" opacity=".3"/>
  <line x1="690" y1="292" x2="710" y2="292" opacity=".5"/>

  <!-- Sol pave -->
  <line x1="0" y1="395" x2="800" y2="395" />
  <path d="M 0 425 L 800 425" stroke-dasharray="4 12" opacity=".4"/>

  <!-- Voiture vintage (silhouette) -->
  <path d="M 380 415 L 380 400 Q 380 392 388 392 L 432 392 Q 440 392 440 400 L 440 415" />
  <circle cx="395" cy="418" r="6" opacity=".6"/>
  <circle cx="425" cy="418" r="6" opacity=".6"/>
  <line x1="395" y1="400" x2="425" y2="400" />

  <!-- Couple elegant -->
  <circle cx="200" cy="425" r="4" />
  <line x1="200" y1="429" x2="200" y2="450" />
  <line x1="200" y1="438" x2="195" y2="445" />
  <line x1="200" y1="438" x2="205" y2="445" />
  <line x1="200" y1="450" x2="196" y2="460" />
  <line x1="200" y1="450" x2="204" y2="460" />

  <circle cx="215" cy="425" r="4" />
  <line x1="215" y1="429" x2="215" y2="450" />
  <line x1="215" y1="438" x2="210" y2="445" />
  <line x1="215" y1="438" x2="220" y2="445" />
  <line x1="215" y1="450" x2="211" y2="460" />
  <line x1="215" y1="450" x2="219" y2="460" />
  <line x1="200" y1="438" x2="215" y2="438" opacity=".5"/>
</svg>
