<svg xmlns="http://www.w3.org/2000/svg" viewBox="0 0 800 500" fill="none" stroke="#F5EDE0" stroke-width="1.2" stroke-linecap="round" stroke-linejoin="round">
  <title>Colline du Château — vue panoramique sur la baie des Anges</title>

  <!-- Étoiles / petits points dans le ciel crépusculaire -->
  <circle cx="120" cy="60" r="1.5" fill="#F5EDE0" opacity=".6"/>
  <circle cx="250" cy="40" r="1" fill="#F5EDE0" opacity=".5"/>
  <circle cx="380" cy="80" r="1.2" fill="#F5EDE0" opacity=".5"/>
  <circle cx="520" cy="50" r="1" fill="#F5EDE0" opacity=".4"/>
  <circle cx="650" cy="70" r="1.3" fill="#F5EDE0" opacity=".6"/>
  <circle cx="720" cy="40" r="1" fill="#F5EDE0" opacity=".5"/>
  <circle cx="80" cy="120" r="1" fill="#F5EDE0" opacity=".4"/>
  <circle cx="200" cy="110" r="1.2" fill="#F5EDE0" opacity=".5"/>

  <!-- Soleil couchant à l'horizon -->
  <path d="M 100 250 A 60 60 0 0 1 220 250" opacity=".7"/>
  <line x1="100" y1="250" x2="220" y2="250" stroke-width="0.5" opacity=".5"/>
  <!-- Halo -->
  <path d="M 80 250 A 80 80 0 0 1 240 250" stroke-dasharray="3 6" opacity=".3"/>

  <!-- Ligne d'horizon (mer) -->
  <line x1="0" y1="250" x2="800" y2="250" />

  <!-- Colline du Château (silhouette) -->
  <path d="M 0 380 L 0 280 Q 40 250 80 245 Q 130 240 150 220 Q 180 200 210 195 Q 250 185 270 200 Q 290 215 310 220 Q 340 225 360 245 Q 380 260 400 270 Q 420 280 800 280 L 800 380 Z" fill="#F5EDE0" opacity=".08"/>
  <path d="M 0 280 Q 40 250 80 245 Q 130 240 150 220 Q 180 200 210 195 Q 250 185 270 200 Q 290 215 310 220 Q 340 225 360 245 Q 380 260 400 270 Q 420 280 800 280" />

  <!-- Cascade artificielle -->
  <path d="M 235 200 L 235 270" stroke-dasharray="2 3" opacity=".6"/>
  <path d="M 240 200 L 240 270" stroke-dasharray="2 4" opacity=".5"/>
  <path d="M 230 200 L 230 270" stroke-dasharray="3 4" opacity=".5"/>

  <!-- Arbres sur la colline -->
  <!-- Cypres 1 -->
  <path d="M 100 230 Q 95 215 100 195 Q 105 215 100 230" fill="#F5EDE0" opacity=".1"/>
  <path d="M 100 230 Q 95 215 100 195 Q 105 215 100 230" />
  <line x1="100" y1="230" x2="100" y2="240" />

  <!-- Cypres 2 -->
  <path d="M 170 215 Q 165 200 170 180 Q 175 200 170 215" fill="#F5EDE0" opacity=".1"/>
  <path d="M 170 215 Q 165 200 170 180 Q 175 200 170 215" />
  <line x1="170" y1="215" x2="170" y2="225" />

  <!-- Petit arbre rond -->
  <circle cx="55" cy="245" r="14" fill="#F5EDE0" opacity=".1"/>
  <circle cx="55" cy="245" r="14" />
  <line x1="55" y1="259" x2="55" y2="275" />

  <!-- Cypres 3 -->
  <path d="M 300 220 Q 295 205 300 185 Q 305 205 300 220" fill="#F5EDE0" opacity=".1"/>
  <path d="M 300 220 Q 295 205 300 185 Q 305 205 300 220" />
  <line x1="300" y1="220" x2="300" y2="230" />

  <!-- Petits buissons -->
  <path d="M 130 250 Q 138 240 146 250 Q 143 248 130 250" />
  <path d="M 200 250 Q 208 240 216 250 Q 213 248 200 250" />
  <path d="M 350 270 Q 358 260 366 270 Q 363 268 350 270" />

  <!-- Ville en bas / silhouette -->
  <!-- Mer scintillante -->
  <line x1="0" y1="270" x2="60" y2="270" opacity=".4"/>
  <line x1="430" y1="270" x2="600" y2="270" opacity=".4"/>
  <line x1="630" y1="270" x2="800" y2="270" opacity=".4"/>

  <!-- Petites lumières de la ville -->
  <circle cx="450" cy="295" r="1" fill="#F5EDE0" />
  <circle cx="470" cy="305" r="1" fill="#F5EDE0" />
  <circle cx="500" cy="295" r="1" fill="#F5EDE0" />
  <circle cx="530" cy="310" r="1" fill="#F5EDE0" />
  <circle cx="560" cy="300" r="1" fill="#F5EDE0" />
  <circle cx="610" cy="310" r="1" fill="#F5EDE0" />
  <circle cx="650" cy="295" r="1" fill="#F5EDE0" />
  <circle cx="690" cy="305" r="1" fill="#F5EDE0" />
  <circle cx="720" cy="295" r="1" fill="#F5EDE0" />
  <circle cx="750" cy="310" r="1" fill="#F5EDE0" />

  <!-- Silhouette de bâtiments dans la baie au loin -->
  <path d="M 440 280 L 440 260 L 460 260 L 460 280" opacity=".3"/>
  <path d="M 465 280 L 465 255 L 485 255 L 485 280" opacity=".3"/>
  <path d="M 490 280 L 490 265 L 510 265 L 510 280" opacity=".3"/>
  <path d="M 520 280 L 520 250 L 545 250 L 545 280" opacity=".4"/>
  <path d="M 550 280 L 550 258 L 570 258 L 570 280" opacity=".3"/>
  <path d="M 580 280 L 580 252 L 600 252 L 600 280" opacity=".3"/>
  <path d="M 610 280 L 610 264 L 630 264 L 630 280" opacity=".3"/>
  <path d="M 640 280 L 640 256 L 660 256 L 660 280" opacity=".3"/>
  <path d="M 670 280 L 670 262 L 690 262 L 690 280" opacity=".3"/>
  <path d="M 700 280 L 700 258 L 720 258 L 720 280" opacity=".3"/>
  <path d="M 730 280 L 730 264 L 755 264 L 755 280" opacity=".3"/>
  <path d="M 765 280 L 765 258 L 790 258 L 790 280" opacity=".3"/>

  <!-- Mouettes -->
  <path d="M 350 130 Q 355 124 360 130 Q 365 124 370 130" opacity=".5"/>
  <path d="M 450 150 Q 455 144 460 150 Q 465 144 470 150" opacity=".4"/>

  <!-- Le donjon (point de vue iconique) -->
  <rect x="380" y="160" width="35" height="35" />
  <line x1="380" y1="170" x2="415" y2="170" />
  <rect x="385" y="175" width="6" height="10" />
  <rect x="395" y="175" width="6" height="10" />
  <rect x="405" y="175" width="6" height="10" />
  <!-- Drapeau -->
  <line x1="397" y1="160" x2="397" y2="140" />
  <path d="M 397 140 L 415 145 L 397 150 Z" />
</svg>
