<svg xmlns="http://www.w3.org/2000/svg" viewBox="0 0 800 500" fill="none" stroke="currentColor" stroke-width="1.2" stroke-linecap="round" stroke-linejoin="round">
  <title>Promenade des Anglais — baie des Anges</title>

  <!-- Soleil couchant -->
  <circle cx="180" cy="160" r="55" opacity=".7"/>
  <circle cx="180" cy="160" r="72" stroke-dasharray="3 6" opacity=".3"/>
  <circle cx="180" cy="160" r="92" stroke-dasharray="2 8" opacity=".15"/>

  <!-- Ligne d'horizon (mer) -->
  <line x1="0" y1="270" x2="800" y2="270" />

  <!-- Vagues douces -->
  <path d="M 0 290 Q 50 285 100 290 T 200 290 T 300 290 T 400 290 T 500 290 T 600 290 T 700 290 T 800 290" opacity=".5"/>
  <path d="M 0 320 Q 50 315 100 320 T 200 320 T 300 320 T 400 320 T 500 320 T 600 320 T 700 320 T 800 320" opacity=".35"/>
  <path d="M 0 360 Q 50 355 100 360 T 200 360 T 300 360 T 400 360 T 500 360 T 600 360 T 700 360 T 800 360" opacity=".25"/>
  <path d="M 0 400 Q 50 395 100 400 T 200 400 T 300 400 T 400 400 T 500 400 T 600 400 T 700 400 T 800 400" opacity=".18"/>

  <!-- Reflet du soleil dans la mer -->
  <line x1="180" y1="275" x2="180" y2="450" stroke-dasharray="2 6" opacity=".4"/>
  <line x1="174" y1="290" x2="186" y2="290" opacity=".5"/>
  <line x1="172" y1="320" x2="188" y2="320" opacity=".4"/>
  <line x1="168" y1="360" x2="192" y2="360" opacity=".3"/>

  <!-- Promenade — perspective -->
  <line x1="0" y1="270" x2="320" y2="270" />
  <line x1="0" y1="260" x2="320" y2="260" stroke-dasharray="4 8" opacity=".5"/>
  <line x1="480" y1="270" x2="800" y2="270" />
  <line x1="480" y1="260" x2="800" y2="260" stroke-dasharray="4 8" opacity=".5"/>

  <!-- Lampadaire 1 (gauche) -->
  <line x1="60" y1="265" x2="60" y2="100" />
  <circle cx="60" cy="95" r="6" fill="currentColor" opacity=".3"/>
  <circle cx="60" cy="95" r="6" />
  <circle cx="60" cy="95" r="14" opacity=".3"/>
  <path d="M 50 105 L 70 105" opacity=".5"/>

  <!-- Lampadaire 2 -->
  <line x1="640" y1="265" x2="640" y2="120" />
  <circle cx="640" cy="115" r="5" fill="currentColor" opacity=".3"/>
  <circle cx="640" cy="115" r="5" />
  <circle cx="640" cy="115" r="12" opacity=".3"/>

  <!-- Palmier 1 -->
  <line x1="120" y1="260" x2="118" y2="160" />
  <line x1="120" y1="260" x2="122" y2="160" />
  <!-- Palmes -->
  <path d="M 120 160 Q 90 140 70 150" />
  <path d="M 120 160 Q 100 130 80 130" />
  <path d="M 120 160 Q 130 130 150 130" />
  <path d="M 120 160 Q 145 140 170 150" />
  <path d="M 120 160 Q 110 145 90 155" opacity=".7"/>
  <path d="M 120 160 Q 135 145 155 155" opacity=".7"/>
  <!-- Texture tronc -->
  <line x1="116" y1="180" x2="124" y2="180" opacity=".4"/>
  <line x1="116" y1="200" x2="124" y2="200" opacity=".4"/>
  <line x1="116" y1="220" x2="124" y2="220" opacity=".4"/>
  <line x1="116" y1="240" x2="124" y2="240" opacity=".4"/>

  <!-- Palmier 2 -->
  <line x1="700" y1="265" x2="698" y2="170" />
  <line x1="700" y1="265" x2="702" y2="170" />
  <path d="M 700 170 Q 670 152 655 160" />
  <path d="M 700 170 Q 680 140 660 145" />
  <path d="M 700 170 Q 712 140 730 145" />
  <path d="M 700 170 Q 720 152 740 160" />
  <path d="M 700 170 Q 690 155 670 165" opacity=".7"/>
  <path d="M 700 170 Q 715 155 730 165" opacity=".7"/>
  <line x1="696" y1="195" x2="704" y2="195" opacity=".4"/>
  <line x1="696" y1="215" x2="704" y2="215" opacity=".4"/>
  <line x1="696" y1="235" x2="704" y2="235" opacity=".4"/>

  <!-- Hôtel Belle Epoque sur la droite (silhouette) -->
  <path d="M 500 270 L 500 200 L 510 195 L 510 180 Q 520 175 530 180 L 530 195 L 580 195 L 580 180 Q 590 175 600 180 L 600 195 L 610 200 L 610 270" />
  <!-- Dôme -->
  <path d="M 510 200 Q 535 180 555 200" opacity=".5"/>
  <path d="M 555 200 Q 575 180 600 200" opacity=".5"/>
  <!-- Fenêtres -->
  <rect x="515" y="215" width="8" height="12" />
  <rect x="530" y="215" width="8" height="12" />
  <rect x="545" y="215" width="8" height="12" />
  <rect x="560" y="215" width="8" height="12" />
  <rect x="575" y="215" width="8" height="12" />
  <rect x="590" y="215" width="8" height="12" />
  <rect x="515" y="240" width="8" height="12" />
  <rect x="530" y="240" width="8" height="12" />
  <rect x="545" y="240" width="8" height="12" />
  <rect x="560" y="240" width="8" height="12" />
  <rect x="575" y="240" width="8" height="12" />
  <rect x="590" y="240" width="8" height="12" />

  <!-- Petite voile au loin -->
  <path d="M 400 260 L 400 235 L 415 260 Z" opacity=".4"/>
  <path d="M 405 260 L 405 245 L 412 260 Z" opacity=".5"/>

  <!-- Mouettes -->
  <path d="M 300 130 Q 305 124 310 130 Q 315 124 320 130" opacity=".6"/>
  <path d="M 450 90 Q 455 84 460 90 Q 465 84 470 90" opacity=".5"/>
  <path d="M 550 140 Q 555 134 560 140 Q 565 134 570 140" opacity=".5"/>

  <!-- Promeneur silhouette -->
  <circle cx="350" cy="255" r="2" />
  <line x1="350" y1="258" x2="350" y2="265" />
  <line x1="350" y1="261" x2="348" y2="265" />
  <line x1="350" y1="261" x2="352" y2="265" />
</svg>
