<svg xmlns="http://www.w3.org/2000/svg" viewBox="0 0 800 500" fill="none" stroke="currentColor" stroke-width="1.2" stroke-linecap="round" stroke-linejoin="round">
  <title>Vieux-Nice — ruelles et toits ocre</title>
  <!-- Sky line decorative -->
  <line x1="0" y1="80" x2="800" y2="80" stroke-dasharray="2 8" opacity=".3"/>
  <!-- Soleil -->
  <circle cx="650" cy="120" r="40" opacity=".5"/>
  <circle cx="650" cy="120" r="55" stroke-dasharray="3 6" opacity=".25"/>

  <!-- Roof line — silhouette du Vieux-Nice -->
  <!-- Tour Saint-Francois (campanile) -->
  <path d="M 80 380 L 80 220 L 110 200 L 140 220 L 140 380" />
  <rect x="92" y="240" width="36" height="50" />
  <line x1="92" y1="260" x2="128" y2="260" />
  <circle cx="110" cy="305" r="3" />
  <line x1="110" y1="200" x2="110" y2="190" />
  <circle cx="110" cy="186" r="3" fill="currentColor" />

  <!-- Maison 1 -->
  <path d="M 140 380 L 140 280 L 175 260 L 210 280 L 210 380" />
  <rect x="155" y="300" width="14" height="20" />
  <rect x="181" y="300" width="14" height="20" />
  <rect x="155" y="330" width="14" height="20" />
  <rect x="181" y="330" width="14" height="20" />

  <!-- Maison 2 (plus haute) -->
  <path d="M 210 380 L 210 240 L 250 220 L 290 240 L 290 380" />
  <rect x="220" y="265" width="14" height="20" />
  <rect x="244" y="265" width="14" height="20" />
  <rect x="268" y="265" width="14" height="20" />
  <rect x="220" y="295" width="14" height="20" />
  <rect x="244" y="295" width="14" height="20" />
  <rect x="268" y="295" width="14" height="20" />
  <rect x="220" y="325" width="14" height="20" />
  <rect x="244" y="325" width="14" height="20" />
  <rect x="268" y="325" width="14" height="20" />
  <!-- Linge tendu (clothesline) -->
  <path d="M 215 295 Q 250 305 285 295" stroke-dasharray="1 3" opacity=".6"/>

  <!-- Maison 3 -->
  <path d="M 290 380 L 290 260 L 320 240 L 350 260 L 350 380" />
  <rect x="300" y="280" width="14" height="20" />
  <rect x="326" y="280" width="14" height="20" />
  <rect x="300" y="310" width="14" height="20" />
  <rect x="326" y="310" width="14" height="20" />
  <rect x="300" y="340" width="14" height="20" />
  <rect x="326" y="340" width="14" height="20" />

  <!-- Cathedrale Sainte-Reparate (dome) -->
  <path d="M 350 380 L 350 280 Q 350 250 380 240 L 380 200 Q 400 180 420 200 L 420 240 Q 450 250 450 280 L 450 380" />
  <path d="M 380 240 Q 400 220 420 240" fill="currentColor" opacity=".15"/>
  <line x1="400" y1="200" x2="400" y2="180" />
  <path d="M 395 180 L 405 180 M 400 175 L 400 175" />
  <line x1="400" y1="175" x2="400" y2="170" />
  <!-- Croix au sommet -->
  <line x1="396" y1="166" x2="404" y2="166" />
  <line x1="400" y1="160" x2="400" y2="172" />
  <!-- Petits fenetres -->
  <rect x="370" y="280" width="12" height="18" />
  <rect x="418" y="280" width="12" height="18" />
  <rect x="370" y="320" width="12" height="18" />
  <rect x="418" y="320" width="12" height="18" />

  <!-- Maisons 4-5-6 -->
  <path d="M 450 380 L 450 250 L 490 230 L 530 250 L 530 380" />
  <rect x="462" y="275" width="14" height="20" />
  <rect x="486" y="275" width="14" height="20" />
  <rect x="510" y="275" width="14" height="20" />
  <rect x="462" y="305" width="14" height="20" />
  <rect x="486" y="305" width="14" height="20" />
  <rect x="510" y="305" width="14" height="20" />
  <rect x="462" y="335" width="14" height="20" />
  <rect x="486" y="335" width="14" height="20" />
  <rect x="510" y="335" width="14" height="20" />

  <path d="M 530 380 L 530 290 L 560 270 L 590 290 L 590 380" />
  <rect x="540" y="310" width="14" height="20" />
  <rect x="566" y="310" width="14" height="20" />
  <rect x="540" y="340" width="14" height="20" />
  <rect x="566" y="340" width="14" height="20" />

  <path d="M 590 380 L 590 260 L 630 240 L 670 260 L 670 380" />
  <rect x="600" y="285" width="14" height="20" />
  <rect x="624" y="285" width="14" height="20" />
  <rect x="648" y="285" width="14" height="20" />
  <rect x="600" y="315" width="14" height="20" />
  <rect x="624" y="315" width="14" height="20" />
  <rect x="648" y="315" width="14" height="20" />
  <rect x="600" y="345" width="14" height="20" />
  <rect x="624" y="345" width="14" height="20" />
  <rect x="648" y="345" width="14" height="20" />

  <!-- Petite tour finale -->
  <path d="M 670 380 L 670 230 L 700 215 L 730 230 L 730 380" />
  <rect x="685" y="255" width="14" height="20" />
  <rect x="709" y="255" width="14" height="20" />
  <rect x="685" y="285" width="14" height="20" />
  <rect x="709" y="285" width="14" height="20" />
  <rect x="685" y="315" width="14" height="20" />
  <rect x="709" y="315" width="14" height="20" />
  <rect x="685" y="345" width="14" height="20" />
  <rect x="709" y="345" width="14" height="20" />

  <!-- Sol / pave -->
  <line x1="0" y1="380" x2="800" y2="380" />
  <path d="M 0 410 L 800 410" stroke-dasharray="4 12" opacity=".4"/>

  <!-- Quelques figures -->
  <!-- Personne avec chapeau -->
  <circle cx="180" cy="430" r="4" />
  <line x1="176" y1="430" x2="184" y2="430" />
  <line x1="172" y1="428" x2="188" y2="428" />
  <line x1="180" y1="434" x2="180" y2="455" />
  <line x1="180" y1="442" x2="175" y2="448" />
  <line x1="180" y1="442" x2="185" y2="448" />
  <line x1="180" y1="455" x2="176" y2="465" />
  <line x1="180" y1="455" x2="184" y2="465" />

  <!-- Banc -->
  <line x1="500" y1="430" x2="550" y2="430" />
  <line x1="505" y1="430" x2="505" y2="445" />
  <line x1="545" y1="430" x2="545" y2="445" />

  <!-- Petit oiseau -->
  <path d="M 380 90 Q 385 86 390 90 Q 395 86 400 90" opacity=".6"/>
  <path d="M 420 110 Q 425 106 430 110 Q 435 106 440 110" opacity=".5"/>
</svg>
