<?xml version="1.0" encoding="UTF-8" standalone="no"?>
<svg xmlns="http://www.w3.org/2000/svg" viewBox="0 0 1500 1000"
     width="1500" height="1000"
     preserveAspectRatio="xMidYMid meet">
  <title>Delfosse Properties</title>
  <desc>Logo vectoriel - Delfosse Properties</desc>
  
    <g id="monogram" fill="#0A1628">
      <path d="M22 662 62 659C108 656 113 647 113 569V95C113 66 104 44 88 36L57 20V-3C103 -1 150 0 196 0C244 0 293 -3 341 -3C469 -3 565 30 635 99C707 170 751 278 751 385C751 571 613 692 402 692C344 692 286 689 228 689C159 689 91 690 22 692ZM208 49V644C234 649 269 652 319 652C430 652 520 632 573 579C621 531 644 459 644 359C644 247 610 161 544 107C484 58 424 41 311 41C265 41 234 43 208 49Z" transform="translate(460.142,580.000) scale(0.520000,-0.520000)"/>
      <path d="M22 -3C71 -1 119 0 168 0C217 0 266 -1 315 -3V27L267 30C221 33 216 41 216 120V642C251 650 280 654 314 654C422 654 480 604 480 509C480 419 419 356 332 356C311 356 296 358 270 366L280 330C304 325 318 324 338 324C475 324 580 417 580 537C580 633 502 692 375 692C318 692 262 689 205 689C144 689 84 690 23 692V662L68 659C113 656 121 643 121 569V120C121 41 116 33 70 30L22 27Z" transform="translate(725.778,580.000) scale(0.520000,-0.520000)"/>
    </g>
    
  <g id="delfosse-text" fill="#0A1628">
    <path d="M22 662 62 659C108 656 113 647 113 569V95C113 66 104 44 88 36L57 20V-3C103 -1 150 0 196 0C244 0 293 -3 341 -3C469 -3 565 30 635 99C707 170 751 278 751 385C751 571 613 692 402 692C344 692 286 689 228 689C159 689 91 690 22 692ZM208 49V644C234 649 269 652 319 652C430 652 520 632 573 579C621 531 644 459 644 359C644 247 610 161 544 107C484 58 424 41 311 41C265 41 234 43 208 49Z" transform="translate(133.626,770.000) scale(0.132000,-0.132000)"/>
<path d="M22 662 70 659C116 656 121 648 121 569V120C121 41 117 34 70 30L34 27V-3C75 -1 116 0 157 0C234 0 312 -1 389 -3L556 0C556 58 562 112 572 164H537L532 130C526 87 513 56 499 51C478 44 405 39 315 39C263 39 245 41 216 47V327L376 330C420 330 439 326 446 293C450 271 451 234 451 234H481C479 271 478 308 478 345C478 384 479 422 481 461H451C451 461 451 428 446 409C438 375 419 371 376 371C326 371 260 372 216 375V642C247 649 264 650 333 650C390 650 446 645 478 636C502 629 505 625 505 602V537H540C540 597 545 645 556 689L432 692C355 690 277 689 200 689C141 689 81 690 22 692Z" transform="translate(317.634,770.000) scale(0.132000,-0.132000)"/>
<path d="M22 662 70 659C116 656 121 648 121 569V95C121 66 112 44 96 36L65 20V-3C98 -1 131 0 164 0C242 0 319 -3 397 -3C439 -3 429 -3 565 0C572 43 576 75 586 172H554L542 122C533 83 526 62 520 57C507 46 420 39 301 39C265 39 242 41 216 47V569C216 648 221 656 267 659L315 662V692C266 690 217 689 168 689C119 689 71 690 22 692Z" transform="translate(480.126,770.000) scale(0.132000,-0.132000)"/>
<path d="M22 -3C71 -1 119 0 168 0C217 0 266 -1 315 -3V27L267 30C221 33 216 41 216 120V327L376 330C420 330 439 326 446 293C450 271 451 234 451 234H481C479 271 478 308 478 345C478 384 479 422 481 461H451L446 409C443 375 418 371 374 371C320 371 260 372 216 375V642C246 649 264 650 323 650C371 650 427 644 458 636C482 630 485 625 485 602V537H520C520 597 525 645 536 689L414 692C342 690 270 689 198 689C139 689 81 690 22 692V662L70 659C116 656 121 648 121 569V120C121 41 116 33 70 30L22 27Z" transform="translate(642.618,770.000) scale(0.132000,-0.132000)"/>
<path d="M22 341C22 131 168 -20 370 -20C594 -20 764 147 764 367C764 577 624 709 402 709C174 709 22 561 22 341ZM129 378C129 563 221 667 385 667C556 667 657 545 657 337C657 139 565 22 410 22C242 22 129 164 129 378Z" transform="translate(797.850,770.000) scale(0.132000,-0.132000)"/>
<path d="M24 484C24 435 37 399 66 372C100 341 146 325 243 312C320 301 355 289 381 267C407 245 419 217 419 179C419 89 344 24 240 24C160 24 82 63 77 104L69 171H37C38 153 38 137 38 131C38 85 36 63 30 18C87 -7 145 -20 203 -20C377 -20 503 85 503 230C503 277 490 310 462 336C427 369 385 382 273 397C151 413 108 446 108 523C108 607 171 667 259 667C298 667 335 659 362 644C395 627 406 612 409 583L415 526H447C447 579 451 613 461 667C381 699 336 709 281 709C132 709 24 615 24 484Z" transform="translate(983.442,770.000) scale(0.132000,-0.132000)"/>
<path d="M24 484C24 435 37 399 66 372C100 341 146 325 243 312C320 301 355 289 381 267C407 245 419 217 419 179C419 89 344 24 240 24C160 24 82 63 77 104L69 171H37C38 153 38 137 38 131C38 85 36 63 30 18C87 -7 145 -20 203 -20C377 -20 503 85 503 230C503 277 490 310 462 336C427 369 385 382 273 397C151 413 108 446 108 523C108 607 171 667 259 667C298 667 335 659 362 644C395 627 406 612 409 583L415 526H447C447 579 451 613 461 667C381 699 336 709 281 709C132 709 24 615 24 484Z" transform="translate(1134.582,770.000) scale(0.132000,-0.132000)"/>
<path d="M22 662 70 659C116 656 121 648 121 569V120C121 41 117 34 70 30L34 27V-3C75 -1 116 0 157 0C234 0 312 -1 389 -3L556 0C556 58 562 112 572 164H537L532 130C526 87 513 56 499 51C478 44 405 39 315 39C263 39 245 41 216 47V327L376 330C420 330 439 326 446 293C450 271 451 234 451 234H481C479 271 478 308 478 345C478 384 479 422 481 461H451C451 461 451 428 446 409C438 375 419 371 376 371C326 371 260 372 216 375V642C247 649 264 650 333 650C390 650 446 645 478 636C502 629 505 625 505 602V537H540C540 597 545 645 556 689L432 692C355 690 277 689 200 689C141 689 81 690 22 692Z" transform="translate(1285.722,770.000) scale(0.132000,-0.132000)"/>
  </g>
  <g id="properties-text" fill="#0A1628">
    <path d="M22 -3C71 -1 119 0 168 0C217 0 266 -1 315 -3V27L267 30C221 33 216 41 216 120V642C251 650 280 654 314 654C422 654 480 604 480 509C480 419 419 356 332 356C311 356 296 358 270 366L280 330C304 325 318 324 338 324C475 324 580 417 580 537C580 633 502 692 375 692C318 692 262 689 205 689C144 689 84 690 23 692V662L68 659C113 656 121 643 121 569V120C121 41 116 33 70 30L22 27Z" transform="translate(439.206,870.000) scale(0.044000,-0.044000)"/>
<path d="M22 -3C71 -1 119 0 168 0C217 0 266 -1 315 -3V27L267 30C221 33 216 41 216 120V642C250 650 280 654 314 654C418 654 476 606 476 521C476 429 403 371 287 371H258V355C280 331 288 320 304 298L488 51L529 -3C552 -1 574 0 597 0C621 0 645 -1 669 -3V27C637 30 621 36 608 53L381 349C437 363 463 374 496 397C548 434 576 484 576 542C576 638 511 692 381 692C321 692 262 689 202 689C144 689 87 690 29 692V662L70 659C116 656 121 647 121 569V120C121 41 116 33 70 30L22 27Z" transform="translate(505.382,870.000) scale(0.044000,-0.044000)"/>
<path d="M22 341C22 131 168 -20 370 -20C594 -20 764 147 764 367C764 577 624 709 402 709C174 709 22 561 22 341ZM129 378C129 563 221 667 385 667C556 667 657 545 657 337C657 139 565 22 410 22C242 22 129 164 129 378Z" transform="translate(574.374,870.000) scale(0.044000,-0.044000)"/>
<path d="M22 -3C71 -1 119 0 168 0C217 0 266 -1 315 -3V27L267 30C221 33 216 41 216 120V642C251 650 280 654 314 654C422 654 480 604 480 509C480 419 419 356 332 356C311 356 296 358 270 366L280 330C304 325 318 324 338 324C475 324 580 417 580 537C580 633 502 692 375 692C318 692 262 689 205 689C144 689 84 690 23 692V662L68 659C113 656 121 643 121 569V120C121 41 116 33 70 30L22 27Z" transform="translate(648.558,870.000) scale(0.044000,-0.044000)"/>
<path d="M22 662 70 659C116 656 121 648 121 569V120C121 41 117 34 70 30L34 27V-3C75 -1 116 0 157 0C234 0 312 -1 389 -3L556 0C556 58 562 112 572 164H537L532 130C526 87 513 56 499 51C478 44 405 39 315 39C263 39 245 41 216 47V327L376 330C420 330 439 326 446 293C450 271 451 234 451 234H481C479 271 478 308 478 345C478 384 479 422 481 461H451C451 461 451 428 446 409C438 375 419 371 376 371C326 371 260 372 216 375V642C247 649 264 650 333 650C390 650 446 645 478 636C502 629 505 625 505 602V537H540C540 597 545 645 556 689L432 692C355 690 277 689 200 689C141 689 81 690 22 692Z" transform="translate(714.734,870.000) scale(0.044000,-0.044000)"/>
<path d="M22 -3C71 -1 119 0 168 0C217 0 266 -1 315 -3V27L267 30C221 33 216 41 216 120V642C250 650 280 654 314 654C418 654 476 606 476 521C476 429 403 371 287 371H258V355C280 331 288 320 304 298L488 51L529 -3C552 -1 574 0 597 0C621 0 645 -1 669 -3V27C637 30 621 36 608 53L381 349C437 363 463 374 496 397C548 434 576 484 576 542C576 638 511 692 381 692C321 692 262 689 202 689C144 689 87 690 29 692V662L70 659C116 656 121 647 121 569V120C121 41 116 33 70 30L22 27Z" transform="translate(781.218,870.000) scale(0.044000,-0.044000)"/>
<path d="M18 692C23 635 25 596 25 531H56L60 610C61 634 72 643 100 643H255C258 609 259 586 259 543V120C259 41 254 33 208 30L160 27V-3C209 -1 257 0 306 0C355 0 404 -1 453 -3V27L405 30C359 33 354 41 354 120V543C354 588 355 610 358 643H513C541 643 552 634 553 610L557 531H588C588 596 590 635 595 692L379 689H221Z" transform="translate(850.210,870.000) scale(0.044000,-0.044000)"/>
<path d="M22 -3C71 -1 119 0 168 0C217 0 266 -1 315 -3V27L267 30C221 33 216 41 216 120V569C216 648 221 656 267 659L315 662V692C266 690 217 689 168 689C119 689 71 690 22 692V662L70 659C116 656 121 648 121 569V120C121 41 116 33 70 30L22 27Z" transform="translate(916.782,870.000) scale(0.044000,-0.044000)"/>
<path d="M22 662 70 659C116 656 121 648 121 569V120C121 41 117 34 70 30L34 27V-3C75 -1 116 0 157 0C234 0 312 -1 389 -3L556 0C556 58 562 112 572 164H537L532 130C526 87 513 56 499 51C478 44 405 39 315 39C263 39 245 41 216 47V327L376 330C420 330 439 326 446 293C450 271 451 234 451 234H481C479 271 478 308 478 345C478 384 479 422 481 461H451C451 461 451 428 446 409C438 375 419 371 376 371C326 371 260 372 216 375V642C247 649 264 650 333 650C390 650 446 645 478 636C502 629 505 625 505 602V537H540C540 597 545 645 556 689L432 692C355 690 277 689 200 689C141 689 81 690 22 692Z" transform="translate(971.210,870.000) scale(0.044000,-0.044000)"/>
<path d="M24 484C24 435 37 399 66 372C100 341 146 325 243 312C320 301 355 289 381 267C407 245 419 217 419 179C419 89 344 24 240 24C160 24 82 63 77 104L69 171H37C38 153 38 137 38 131C38 85 36 63 30 18C87 -7 145 -20 203 -20C377 -20 503 85 503 230C503 277 490 310 462 336C427 369 385 382 273 397C151 413 108 446 108 523C108 607 171 667 259 667C298 667 335 659 362 644C395 627 406 612 409 583L415 526H447C447 579 451 613 461 667C381 699 336 709 281 709C132 709 24 615 24 484Z" transform="translate(1037.694,870.000) scale(0.044000,-0.044000)"/>
  </g>
</svg>
