<?xml version="1.0" encoding="UTF-8"?>
<svg id="Calque_1" data-name="Calque 1" xmlns="http://www.w3.org/2000/svg" viewBox="0 0 2048 2048">
  <defs>
    <style>
      .cls-1 { fill: #000000; }
          path:not([class]), polygon:not([class]) { fill: #ffffff; }
    </style>
  </defs>
  <path class="cls-1" d="M0,2046.5V0h2048v2048H0v-1.5ZM919.17,798.34c3.92-45.39,15.82-88.71,36.6-128.41,14.52-27.72,33.97-50.52,57.67-70.48,26.08-21.96,55.88-36.18,89.6-42.58,28.27-5.37,56.45-6.25,85.1-3.29.56.06,1.62.19,1.57-.12l-.3-1.85-2.04-12.67c-63.8-6.95-129.43.42-186.21,29.26-110.96,56.37-156.85,172.6-156.84,292.83l.02,292.73c0,10.89-.74,20.26-3.09,30.48-7.59,32.96-36.93,42.13-68.35,45.87l-2.08,1.39.3,13.81h218.62s-.02-14.62-.02-14.62c-29.78-4.87-59.1-11.2-68.35-42.1-2.89-9.64-4.57-19.23-4.58-29.75l-.1-173.47,67.33-.57c37.91-1.34,74.3-6.43,110.54-17.24,60.21-19.49,112.87-52.75,153.7-101.36,32.87-39.14,53.55-86.59,61.74-137.24,10.67-66.06,2.51-134.43-27.56-194.52-15.39-30.77-37.58-57.89-63-80.81-31.22-28.15-67.21-48.68-106.12-63.9-26.15-10.23-51.88-17.9-79.66-22.45-32.5-5.32-64.55-8.62-97.82-8.63l-296.29-.08-.25,17.42c10.92.64,21.19,1.81,31.63,6.15,18.8,7.82,33.77,24.01,38.75,44,3.38,13.57,4.41,26.75,4.4,41.09l-.15,434.51c0,12.59-1.31,23.95-3.47,35.81-6.25,34.38-36.63,51.5-70.62,54.56l.15,11.39,188.38-.04-.02-35.01c-8.08-.83-14.66-2.04-21.71-4.1-9.22-3.71-15.9-10.55-18.87-20.32-3.57-11.74-5.34-23.99-5.4-36.43l-.24-48.84.17-405.53c0-13.83,1.01-26.42,3.18-39.68,1.43-8.75,4.99-17.42,11.65-23.45,7.55-6.84,18.05-11.31,28.9-11.29l116.93.2c34.93,1,68.71,9.06,101.28,20.62,27.32,9.7,51.33,23.55,74.33,40.74,25.6,19.14,46.93,41.61,65.14,67.87,32.42,46.76,47.5,91.34,53.95,148.08,6,52.86,0,105.8-18.81,155.59-7.27,19.24-16.89,36.6-28.76,53.36-26.26,37.09-63.01,64.91-105.17,81.77-38.53,13.52-78.11,19.96-118.89,19.95l-49.35-.02.15-114.86,2.28-53.76ZM1148.6,995.93c38.65,1.25,75.33-4,112.31-12.93,24.37-5.88,47.11-14.38,69.21-25.81,39.27-20.32,71.48-47.03,96.3-83.69,18.57-27.42,28.79-57.93,33.31-90.85,5.08-36.98.66-74.63-12.94-109.41-11.29-28.88-30.29-52.4-53.81-72.33-24.57-19.32-51.8-34.36-82.35-44.25,7.72,17.62,12.09,34.79,15.34,53.24,26.67,23.19,44.95,53.04,53.99,87.23,6.89,27.71,8.71,55.31,5.86,83.93-3.13,34.26-13.81,67.01-33.5,95.33-42.5,61.15-111.51,92.36-183.52,104.47l-67.78,7.66-.21,5.87,47.77,1.54ZM1101.47,1525.77c22.66-.1,41.81-8.74,56.87-24.51,29.73-31.11,27.34-86.65-6.66-114.03-32.07-25.82-79.29-23.78-109.24,4.16-12.73,11.87-19.71,27.6-22.21,44.73-3.83,26.21,4.98,52.28,24.68,69.92,15.51,13.89,35.23,19.82,56.55,19.72ZM1287.16,1522.73c19.12-5.07,31.53-20.51,31.92-39.69.3-14.43-6.29-26.88-18.5-34.78l-33.58-17.24c-6.38-3.28-12.74-6.26-17.87-11.1-6.62-6.24-9-14.36-6.71-23.68,1.63-6.67,7.52-12.83,15.46-15.52,12.72-4.3,25.64-.11,35.06,9.46,6.86,6.97,9.93,15.32,16.47,24.44l-.3-42.3c-10.08,2.34-17.7,1.04-26.17-1.19-14.13-3.72-28.78-2.78-41.24,4.42s-20.25,20.43-19.87,35.48c.23,9.07,1.99,18.13,8.06,25.16,5.38,6.22,12.37,11.44,19.96,14.91l30.85,14.12c9.08,4.16,15.98,11.73,17.28,21.73,1.63,12.53-5.53,23.92-17.98,27.18-13.4,3.51-28.6.26-39.37-8.66-7.78-6.44-12.96-14.32-18.42-22.78-.53-.81-3.04-1.64-2.97-.68l2.72,41.16,11.78-4.17c17.51,6.09,35.32,8.54,53.42,3.74ZM1432.12,1522.74c19.14-4.95,30.84-20.73,31.26-39.73.33-14.84-6.33-27.64-19.04-35.51l-33.64-17.19c-6.21-3.17-12.15-6.06-17.28-10.78-9.03-8.31-10.76-23.05-2.13-32.22s22.72-10.66,34.16-5.88c9.49,3.96,16.42,10.8,21.63,19.55,2.63,4.43,3.51,9.29,8.15,13.06l-.33-41.74c-9.9,2.33-17.33,1.21-25.69-1.29-15.77-4.71-32.33-2.46-45.84,6.14-12.16,7.74-18.23,19.61-18.14,33.86.24,37.78,40.14,40.58,65.29,57.33,8.29,5.52,12.61,14.36,11.8,24.08-.7,8.48-5.99,17.46-15.29,20.7-17.58,6.13-36.78-.51-48.51-14.57l-11.37-15.61c-.65-.89-3.4-1.91-3.34-.9l2.56,41.13,12.46-4.14c17.25,6.21,35.17,8.38,53.27,3.71ZM409.54,1523.02l56.45-.08c46.86-.07,86.45-28.16,86.22-76.93-.21-46.59-38.76-72.83-83.23-72.93l-60.24-.15-.31,4.06c8.75,1.36,15.45,8.61,15.49,18.19l.42,88.74-.73,18.83c-.32,8.17-6.07,13.99-14.15,15.83l.08,4.44ZM647.37,1450.32c9.15.17,16,6.17,19.18,14.23.35.9,2.08,1.57,4.17,1.69l.02-41.12c-.77-.28-3.36-.04-4.06.38-3.91,7.03-9.74,15.65-18.02,15.87l-28.04.74.04-60.35,32.33.24c9.94.07,18.42,3.96,25.4,10.65,5.34,5.67,9.47,11.88,13.1,19.02l3.72-.78-9.14-37.93-101.64.02c-.23,1.28-.47,3.42.27,3.72l2.78,1.15c5.87,2.42,10.39,9.15,10.39,16.41l.05,104.64c0,9.43-3.97,17.12-13.23,19.92-.07,1.08,0,3.47.17,4.39l107.31-.08,8.53-37.34c-.6-.8-3.78-.54-4.35.44-16.53,28.24-35.11,27.85-65.23,28.53-6.03.14-10.43-3.45-10.44-9.8l-.08-55.14,26.78.49ZM817.12,1510.06c-11.7,4.19-23.68,4.39-36.13,4.72-5.47.14-10.75-2.66-10.74-8.98l.19-110.62c.02-9.23,7.12-15.93,15.33-18.22l-.06-4.01-52.49.03c-.39,1.08-.69,3.6.11,3.89l3.05,1.1c6.26,2.26,10.98,9.42,10.99,17.12l.07,104.98c0,9.22-5.19,16.43-13.89,18.44l-.31,4.7,106.05-.24,10.34-40.04c-.93-.42-3.18-1.07-3.81-.62-2.42,1.72-8.93,20.66-28.72,27.75ZM966.53,1464.77l-.28-40.37c-2.93-.01-4.06.71-5.16,2.76-3.7,6.93-9.92,14.23-18.29,14.41l-27.6.6.12-60.29,30.67.1c9.47.03,17.62,3.35,24.75,9.33,6.18,6.12,11.02,12.86,15.38,20.5l3.81-.96-10.53-37.84-101.38-.05-.02,3.9c8.91,2.42,14.78,9.94,14.77,19.35l-.09,105.26c0,8.75-5.25,15.72-13.32,17.56l.29,4.23,50.69-.1-.02-4.62c-9.25-1.37-14.86-8.84-14.9-18.21l-.2-50.62,27.91,1.01c8.65.31,14.34,6.39,18.91,13.22l1.58,2.37c.37.55,2.93-1.14,2.89-1.54ZM1566.77,1450.54c8.93.13,16.08,5.68,19.16,13.55,1.06,1.34,2.23,2.01,4.56,2.29l-.21-41.43c-.63-1.35-5.6.3-4.95,2.37-4.03,5.99-9.07,13.84-16.84,14.02l-30.75.72.13-60.27,29.14.17c10.62.06,19.26,4.07,27.12,11.1,4.97,5.22,9.23,11.57,13.11,18.01l3.87-.75-9.65-37.37-100.42.04-.4,3.43c7.77,1.84,13.94,8.49,13.95,17.17l.09,108.89c0,7.81-4.91,14.04-11.73,16.35-1.09.37-1.01,3.95-.11,4.45l104.92-.06,9.32-39.05c-3.12-.66-4.55.45-6.01,2.91-6.02,10.11-14.09,19.46-25.52,23.35-12.87,4.38-26.53,4.7-39.9,4-4.86-.25-7.89-4.84-7.9-9.41l-.09-54.92,29.13.42ZM790.51,1672.6c22.17.46,38.3-15.45,39.13-36.89.87-22.52-15.86-40.53-38.64-40.46s-38.6,16.9-38.73,38.71,15.85,38.18,38.24,38.64ZM1451.49,1670.17c9.54-2.92,14.48-10.9,14.35-20.11s-5.04-16.34-13.74-19.24l-17.84-5.96c-4.44-1.48-7.53-5.1-7.49-9.37.04-3.68,2.78-7.63,6.86-8.93,9.59-3.06,19.09.39,26.49,7.86l3.33-11.86c-10.65-7.39-24.69-9.15-36.69-3.88-8.17,3.59-12.57,11.3-12.14,19.82.38,7.61,5.4,14.69,13.58,17.39l18.71,6.18c4.67,1.54,7.31,5.81,6.88,10.32-.35,3.69-3.45,7.56-7.72,8.71-10.63,2.88-20.68-1.1-29.7-8.15l-2.5,11.72c11.61,7.02,24.65,9.48,37.62,5.51ZM593.7,1643.19c9.88-.31,17.79-7.41,20.2-15.12,2.92-9.36,1.11-19.45-6.57-25.38-4.94-3.81-11.94-5.65-18.24-5.6l-27.44.21.05,72.86,12.79.08.03-26.44,19.17-.61ZM699.99,1670.43l14.02-.33-17.73-30.28c8.9-2.32,14.15-9.21,14.87-17.73,1.94-13.16-6.79-23.08-19.87-24.6l-32.99-.13.03,72.94,12.69-.03-.06-28.68,12.03.06,17,28.77ZM906.04,1643.4c9.66-.25,17.75-7.01,20.27-14.77,2.93-9,1.44-19-5.76-25.14-4.96-4.23-11.92-6.57-18.47-6.49l-26.78.34.09,72.89,13.02-.02v-26.36s17.62-.46,17.62-.46ZM1014.23,1638.28l-.06-9.73-29.46-.04v-21.1s36.95-.05,36.95-.05l-.11-10.17-49.35.13-.19,73.01,51.21.03.02-10.12h-38.67s.01-21.97.01-21.97h29.66ZM1109.41,1670.29l14.18-.16-17.62-30.02c9.46-2.75,14.96-10.53,15.33-20.11.48-12.41-8.3-22.49-20.87-22.52l-32.86-.1.02,72.82,12.95.11-.05-28.66,11.85-.13,17.07,28.79ZM1195.98,1670.22l.11-62.64,24.04.03-.05-10.41-59.89.06v10.46s24.08,0,24.08,0v62.6s11.72-.11,11.72-.11ZM1270.55,1670l.05-72.56-12.45-.04-.14,72.77,12.54-.17ZM1365.96,1638.42l-.27-9.91-31,.04.11-21.16,37.51.07-.15-10.29-49.81.1-.02,73.08,50.66-.04.03-10.04-38.36-.03v-21.95s31.3.14,31.3.14Z"/>
  <path d="M919.17,798.34l-2.28,53.76-.15,114.86,49.35.02c40.79.02,80.36-6.43,118.89-19.95,42.16-16.86,78.91-44.67,105.17-81.77,11.87-16.76,21.5-34.12,28.76-53.36,18.81-49.79,24.81-102.73,18.81-155.59-6.45-56.74-21.53-101.32-53.95-148.08-18.21-26.26-39.54-48.74-65.14-67.87-23-17.19-47.01-31.04-74.33-40.74-32.57-11.56-66.35-19.61-101.28-20.62l-116.93-.2c-10.85-.02-21.35,4.45-28.9,11.29-6.66,6.03-10.22,14.71-11.65,23.45-2.17,13.27-3.18,25.85-3.18,39.68l-.17,405.53.24,48.84c.06,12.44,1.83,24.69,5.4,36.43,2.97,9.77,9.65,16.6,18.87,20.32,7.04,2.05,13.63,3.26,21.71,4.1l.02,35.01-188.38.04-.15-11.39c33.98-3.06,64.36-20.17,70.62-54.56,2.16-11.86,3.46-23.22,3.47-35.81l.15-434.51c0-14.34-1.02-27.51-4.4-41.09-4.98-19.99-19.95-36.17-38.75-44-10.43-4.34-20.71-5.51-31.63-6.15l.25-17.42,296.29.08c33.27,0,65.32,3.31,97.82,8.63,27.78,4.55,53.51,12.22,79.66,22.45,38.91,15.22,74.9,35.75,106.12,63.9,25.42,22.92,47.61,50.04,63,80.81,30.06,60.09,38.23,128.46,27.56,194.52-8.18,50.65-28.87,98.1-61.74,137.24-40.83,48.61-93.49,81.87-153.7,101.36-36.24,10.81-72.62,15.9-110.54,17.24l-67.33.57.1,173.47c0,10.52,1.69,20.11,4.58,29.75,9.25,30.9,38.57,37.23,68.35,42.1l.02,14.63h-218.62s-.3-13.82-.3-13.82l2.08-1.39c31.42-3.74,60.77-12.91,68.35-45.87,2.35-10.22,3.09-19.58,3.09-30.48l-.02-292.73c0-120.23,45.88-236.46,156.84-292.83,56.78-28.85,122.41-36.21,186.21-29.26l2.04,12.67.3,1.85c.05.31-1.01.18-1.57.12-28.66-2.96-56.84-2.08-85.1,3.29-33.72,6.4-63.51,20.62-89.6,42.58-23.7,19.96-43.16,42.76-57.67,70.48-20.79,39.7-32.68,83.02-36.6,128.41Z"/>
  <path d="M1148.6,995.93l-47.77-1.54.21-5.87,67.78-7.66c72-12.11,141.01-43.32,183.52-104.47,19.69-28.33,30.36-61.08,33.5-95.33,2.85-28.62,1.03-56.22-5.86-83.93-9.04-34.2-27.32-64.04-53.99-87.23-3.25-18.45-7.62-35.62-15.34-53.24,30.55,9.89,57.77,24.92,82.35,44.25,23.52,19.94,42.51,43.45,53.81,72.33,13.6,34.78,18.03,72.43,12.94,109.41-4.53,32.92-14.74,63.43-33.31,90.85-24.82,36.66-57.04,63.37-96.3,83.69-22.1,11.43-44.84,19.93-69.21,25.81-36.98,8.93-73.66,14.18-112.31,12.93Z"/>
  <path d="M409.54,1523.02l-.08-4.44c8.08-1.84,13.83-7.66,14.15-15.83l.73-18.83-.42-88.74c-.04-9.59-6.74-16.84-15.49-18.19l.31-4.06,60.24.15c44.47.11,83.02,26.35,83.23,72.93.22,48.78-39.36,76.86-86.22,76.93l-56.45.08ZM521.61,1413.4c-8.13-18.82-26.1-31.49-46.56-31.5l-27.91-.02-.16,122.99c0,5.43,3.15,9.62,8.38,9.78,8.96.28,17.77.14,26.57-1.54,44.77-8.57,56.22-61.41,39.68-99.71Z"/>
  <path d="M1101.47,1525.77c-21.32.09-41.04-5.84-56.55-19.72-19.69-17.64-28.5-43.7-24.68-69.92,2.5-17.13,9.48-32.86,22.21-44.73,29.95-27.94,77.17-29.98,109.24-4.16,33.99,27.38,36.39,82.92,6.66,114.03-15.06,15.76-34.21,24.4-56.87,24.51ZM1155.57,1448.99c-.24-34.65-19.72-69.39-56.63-69.93-19.55-.29-37.53,9.64-46.52,27.51-13.22,26.29-11.89,58.45,3.29,83.42,10.63,17.47,28.12,26.83,48.29,26.25,35.25-1.01,51.79-34.1,51.56-67.25Z"/>
  <path d="M1566.77,1450.54l-29.13-.42.09,54.92c0,4.56,3.04,9.15,7.9,9.41,13.37.7,27.03.38,39.9-4,11.43-3.89,19.5-13.24,25.52-23.35,1.46-2.46,2.89-3.57,6.01-2.91l-9.32,39.05-104.92.06c-.9-.5-.98-4.09.11-4.45,6.82-2.31,11.74-8.54,11.73-16.35l-.09-108.89c0-8.68-6.18-15.33-13.95-17.17l.4-3.43,100.42-.04,9.65,37.37-3.87.75c-3.88-6.44-8.14-12.79-13.11-18.01-7.86-7.03-16.51-11.04-27.12-11.1l-29.14-.17-.13,60.27,30.75-.72c7.78-.18,12.82-8.03,16.84-14.02-.64-2.07,4.32-3.72,4.95-2.37l.21,41.43c-2.32-.28-3.5-.94-4.56-2.29-3.07-7.87-10.23-13.42-19.16-13.55Z"/>
  <path d="M647.37,1450.32l-26.78-.49.08,55.14c0,6.35,4.4,9.94,10.44,9.8,30.12-.68,48.7-.29,65.23-28.53.58-.99,3.76-1.24,4.35-.44l-8.53,37.34-107.31.08c-.16-.92-.24-3.31-.17-4.39,9.27-2.79,13.24-10.48,13.23-19.92l-.05-104.64c0-7.26-4.52-13.99-10.39-16.41l-2.78-1.15c-.74-.31-.49-2.44-.27-3.72l101.64-.02,9.14,37.93-3.72.78c-3.63-7.14-7.75-13.36-13.1-19.02-6.98-6.69-15.46-10.57-25.4-10.65l-32.33-.24-.04,60.35,28.04-.74c8.28-.22,14.11-8.84,18.02-15.87.7-.41,3.29-.65,4.06-.38l-.02,41.12c-2.09-.12-3.82-.79-4.17-1.69-3.18-8.06-10.03-14.06-19.18-14.23Z"/>
  <path d="M1432.12,1522.74c-18.1,4.67-36.02,2.51-53.27-3.71l-12.46,4.14-2.56-41.13c-.06-1.01,2.69,0,3.34.9l11.37,15.61c11.73,14.06,30.93,20.7,48.51,14.57,9.3-3.24,14.59-12.22,15.29-20.7.81-9.73-3.51-18.56-11.8-24.08-25.15-16.75-65.06-19.55-65.29-57.33-.09-14.25,5.97-26.12,18.14-33.86,13.51-8.6,30.07-10.85,45.84-6.14,8.36,2.5,15.79,3.62,25.69,1.29l.33,41.74c-4.63-3.77-5.51-8.63-8.15-13.06-5.21-8.75-12.14-15.59-21.63-19.55-11.44-4.78-25.36-3.47-34.16,5.88s-6.89,23.91,2.13,32.22c5.13,4.73,11.07,7.61,17.28,10.78l33.64,17.19c12.7,7.87,19.36,20.67,19.04,35.51-.42,18.99-12.11,34.78-31.26,39.73Z"/>
  <path d="M1287.16,1522.73c-18.09,4.8-35.91,2.35-53.42-3.74l-11.78,4.17-2.72-41.16c-.06-.96,2.45-.13,2.97.68,5.47,8.45,10.64,16.33,18.42,22.78,10.77,8.92,25.97,12.16,39.37,8.66,12.45-3.26,19.61-14.64,17.98-27.18-1.3-10-8.2-17.57-17.28-21.73l-30.85-14.12c-7.59-3.47-14.58-8.69-19.96-14.91-6.07-7.03-7.83-16.08-8.06-25.16-.38-15.04,6.84-27.95,19.87-35.48s27.11-8.14,41.24-4.42c8.47,2.23,16.09,3.53,26.17,1.19l.3,42.3c-6.54-9.12-9.61-17.47-16.47-24.44-9.42-9.56-22.34-13.75-35.06-9.46-7.94,2.68-13.83,8.85-15.46,15.52-2.29,9.33.09,17.44,6.71,23.68,5.13,4.84,11.49,7.82,17.87,11.1l33.58,17.24c12.2,7.9,18.79,20.34,18.5,34.78-.39,19.18-12.8,34.62-31.92,39.69Z"/>
  <path d="M966.53,1464.77c.05.39-2.52,2.09-2.89,1.54l-1.58-2.37c-4.56-6.83-10.25-12.91-18.91-13.22l-27.91-1.01.2,50.62c.04,9.37,5.65,16.84,14.9,18.21l.02,4.62-50.69.1-.29-4.23c8.07-1.84,13.31-8.81,13.32-17.56l.09-105.26c0-9.41-5.87-16.93-14.77-19.35l.02-3.9,101.38.05,10.53,37.84-3.81.96c-4.36-7.64-9.2-14.38-15.38-20.5-7.13-5.99-15.29-9.3-24.75-9.33l-30.67-.1-.12,60.29,27.6-.6c8.37-.18,14.59-7.48,18.29-14.41,1.1-2.06,2.23-2.78,5.16-2.76l.28,40.37Z"/>
  <path d="M817.12,1510.06c19.79-7.09,26.3-26.03,28.72-27.75.63-.45,2.88.2,3.81.62l-10.34,40.04-106.05.24.31-4.7c8.71-2.01,13.9-9.22,13.89-18.44l-.07-104.98c0-7.7-4.73-14.86-10.99-17.12l-3.05-1.1c-.81-.29-.5-2.81-.11-3.89l52.49-.03.06,4.01c-8.21,2.29-15.32,8.98-15.33,18.22l-.19,110.62c-.01,6.32,5.27,9.12,10.74,8.98,12.44-.32,24.43-.53,36.13-4.72Z"/>
  <path d="M790.51,1672.6c-22.39-.47-38.37-16.81-38.24-38.64s16.74-38.64,38.73-38.71,39.52,17.94,38.64,40.46c-.83,21.44-16.97,37.35-39.13,36.89ZM815.05,1643.5c2.94-10.55.92-21.48-6-29.57-5.5-6.44-13.56-9.11-22.17-7.86-7.11,1.03-13.87,5.66-17.89,13.06-4.86,8.95-4.87,19.87-.21,28.97,5.08,9.91,14.52,15.05,25.53,13.77,9.39-1.09,17.78-7.76,20.74-18.37Z"/>
  <path d="M1109.41,1670.29l-17.07-28.79-11.85.13.05,28.66-12.95-.11-.02-72.82,32.86.1c12.58.04,21.36,10.12,20.87,22.52-.37,9.58-5.87,17.36-15.33,20.11l17.62,30.02-14.18.16ZM1108.31,1618.46c.11-5.99-3.97-11.11-9.57-11.26l-18.21-.49.03,26.44,16.86-.7c6.96-.29,11.8-6.52,10.9-14Z"/>
  <path d="M699.99,1670.43l-17-28.77-12.03-.06.06,28.68-12.69.03-.03-72.94,32.99.13c13.08,1.52,21.81,11.43,19.87,24.6-.72,8.52-5.97,15.41-14.87,17.73l17.73,30.28-14.02.33ZM698.67,1618.64c-.27-6.51-4.27-11.55-10.81-11.67l-17.02-.32.13,26.52,17.19-.8c7.05-.33,10.81-6.61,10.51-13.73Z"/>
  <polygon points="1365.96 1638.42 1334.68 1638.28 1334.67 1660.23 1373.02 1660.26 1372.99 1670.3 1322.33 1670.35 1322.35 1597.27 1372.17 1597.17 1372.32 1607.46 1334.8 1607.38 1334.7 1628.55 1365.7 1628.51 1365.96 1638.42"/>
  <polygon points="1014.23 1638.28 984.58 1638.27 984.57 1660.24 1023.24 1660.23 1023.22 1670.36 972.01 1670.33 972.2 1597.32 1021.55 1597.19 1021.66 1607.35 984.73 1607.4 984.72 1628.5 1014.17 1628.55 1014.23 1638.28"/>
  <path d="M906.04,1643.4l-17.62.46v26.36s-13.02.02-13.02.02l-.09-72.89,26.78-.34c6.55-.08,13.5,2.25,18.47,6.49,7.2,6.14,8.69,16.13,5.76,25.14-2.53,7.76-10.61,14.52-20.27,14.77ZM902.75,1634.3c7.62-.26,11.98-6.72,12.35-12.83.39-6.5-3.07-14.08-10.34-14.24l-16.47-.36v27.93s14.46-.5,14.46-.5Z"/>
  <path d="M593.7,1643.19l-19.17.61-.03,26.44-12.79-.08-.05-72.86,27.44-.21c6.3-.05,13.3,1.79,18.24,5.6,7.68,5.92,9.49,16.01,6.57,25.38-2.4,7.71-10.32,14.81-20.2,15.12ZM602.55,1618.88c-.38-6.25-4.44-11.58-10.86-11.72l-17.31-.39v27.89s16.43-.62,16.43-.62c7.8-.29,12.2-7.45,11.73-15.16Z"/>
  <path d="M1451.49,1670.17c-12.97,3.97-26.01,1.51-37.62-5.51l2.5-11.72c9.02,7.05,19.07,11.03,29.7,8.15,4.26-1.15,7.36-5.02,7.72-8.71.43-4.5-2.2-8.77-6.88-10.32l-18.71-6.18c-8.18-2.71-13.2-9.78-13.58-17.39-.43-8.51,3.97-16.23,12.14-19.82,12-5.26,26.04-3.51,36.69,3.88l-3.33,11.86c-7.4-7.47-16.9-10.92-26.49-7.86-4.09,1.3-6.83,5.25-6.86,8.93-.04,4.27,3.05,7.89,7.49,9.37l17.84,5.96c8.71,2.91,13.61,10.11,13.74,19.24s-4.81,17.19-14.35,20.11Z"/>
  <polygon points="1195.98 1670.22 1184.26 1670.33 1184.26 1607.73 1160.17 1607.72 1160.18 1597.26 1220.07 1597.2 1220.13 1607.61 1196.08 1607.58 1195.98 1670.22"/>
  <polygon points="1270.55 1670 1258 1670.18 1258.14 1597.4 1270.6 1597.44 1270.55 1670"/>
  <path class="cls-1" d="M521.61,1413.4c16.54,38.3,5.09,91.15-39.68,99.71-8.8,1.68-17.61,1.82-26.57,1.54-5.23-.17-8.38-4.36-8.38-9.78l.16-122.99,27.91.02c20.46.01,38.43,12.69,46.56,31.5Z"/>
  <path class="cls-1" d="M1155.57,1448.99c.23,33.15-16.32,66.25-51.56,67.25-20.17.58-37.67-8.78-48.29-26.25-15.18-24.97-16.51-57.13-3.29-83.42,8.99-17.87,26.97-27.8,46.52-27.51,36.91.55,56.39,35.28,56.63,69.93Z"/>
  <path class="cls-1" d="M815.05,1643.5c-2.96,10.61-11.35,17.28-20.74,18.37-11,1.28-20.45-3.86-25.53-13.77-4.67-9.11-4.66-20.03.21-28.97,4.02-7.4,10.78-12.03,17.89-13.06,8.6-1.25,16.66,1.43,22.17,7.86,6.91,8.09,8.93,19.02,6,29.57Z"/>
  <path class="cls-1" d="M1108.31,1618.46c.91,7.48-3.94,13.71-10.9,14l-16.86.7-.03-26.44,18.21.49c5.6.15,9.67,5.27,9.57,11.26Z"/>
  <path class="cls-1" d="M698.67,1618.64c.3,7.13-3.46,13.4-10.51,13.73l-17.19.8-.13-26.52,17.02.32c6.54.12,10.54,5.16,10.81,11.67Z"/>
  <path class="cls-1" d="M902.75,1634.3l-14.47.5v-27.93s16.48.36,16.48.36c7.27.16,10.72,7.74,10.34,14.24-.36,6.11-4.73,12.57-12.35,12.83Z"/>
  <path class="cls-1" d="M602.55,1618.88c.47,7.71-3.93,14.86-11.73,15.16l-16.43.62v-27.89s17.31.39,17.31.39c6.41.14,10.48,5.47,10.86,11.72Z"/>
</svg>