<svg fill="none" height="49" viewBox="0 0 125 49" width="125" xmlns="http://www.w3.org/2000/svg"><g fill="#231e21"><path d="m61.8478 34.5954-3.6216-6.2619-2.0503 2.3833c-.1646.1925-.2544.4294-.2544.6662v3.2124h-2.2447v-13.2492h2.2447v6.1139l5.3426-6.1139h2.9631l-3.876 4.5003c-.2693.3109-.2993.7402-.1047 1.0806l4.4596 7.6683z"/><path d="m73.5224 30.1239h-6.4399c-.0147.3828.0294.7962.1467 1.133.1174.3369.3081.6278.5428.8422.176.1684.3667.3062.6014.4287s.4988.1838.8215.1838c.3374 0 .6015-.0307.8215-.1072.2201-.0613.4108-.1991.5868-.3675.22-.2297.3814-.5053.4694-.8268h2.2151c-.0293.2909-.1173.6124-.2934.9493-.1613.3522-.3374.6278-.5281.8575-.4107.4899-.8948.8421-1.4669 1.0565s-1.1589.3215-1.775.3215c-.6602 0-1.2469-.1071-1.731-.3368-.4841-.2144-.9242-.5053-1.3056-.8728-.4841-.4747-.8509-1.0565-1.1002-1.7149-.2494-.6738-.3814-1.4087-.3814-2.205 0-.7962.1173-1.5312.3374-2.2049.2347-.6737.5721-1.2556 1.0415-1.7302.3521-.3828.7921-.6738 1.3056-.9034.5134-.2297 1.1002-.3369 1.7603-.3369.7188 0 1.379.1531 1.9951.4441.6161.2909 1.1149.7502 1.5109 1.3627.3521.5359.5868 1.0872.7042 1.6537.22.9034.1613 2.3734.1613 2.3734zm-2.3177-1.669c-.0147-.7197-.2054-1.2862-.5868-1.715-.1614-.1684-.3668-.3215-.6015-.4134-.2347-.1072-.5281-.1531-.8655-.1531-.352 0-.6748.0765-.9388.2143-.2641.1379-.4988.3216-.6602.5513-.3227.4134-.4841.9187-.4987 1.5312h4.1515z"/><path d="m80.1094 36.5499c-.6424 1.3755-1.3161 2.3689-3.1023 2.4606-.4074.0153-1.8019-.1223-2.0682-.1834v-1.9868c.329.0611 1.7392.2293 2.1779.0153.4857-.2293.9714-1.6506.9714-1.6506.094-.2292.094-.5043 0-.7336l-3.8231-9.445h2.6636l2.6323 7.122 2.5226-7.122h2.4756z"/><path d="m94.7928 34.2846-5.9873-10.3509v10.6466h-2.0409v-13.2344h1.9958c.2101 0 .4052.1036.5102.2958l5.9874 10.3953v-10.6763h1.8007v13.2344h-1.7557c-.2101-.0148-.4051-.1331-.5102-.3105z"/><path d="m107.321 29.9723h-7.033c0 .4454.093.9061.262 1.3515.17.4453.401.8139.71 1.1211.478.4607 1.079.6911 1.82.6911.817 0 1.434-.215 1.85-.645.139-.1383.263-.2918.355-.4454.093-.1536.17-.3686.231-.6143h1.62c-.062.4914-.231.9521-.509 1.3822-.278.43-.617.7832-1.018 1.0443-.355.2303-.74.4146-1.172.5375s-.879.1996-1.357.1996c-.71 0-1.342-.1382-1.897-.3993-.556-.261-1.034-.6296-1.4039-1.075-.4165-.4761-.7403-1.0289-.9409-1.6586-.2005-.6297-.3084-1.29-.3084-1.9811 0-.599.0617-1.1518.1851-1.674s.3238-1.0136.6015-1.459c.3547-.5989.8636-1.0904 1.4956-1.4743.648-.3839 1.404-.5836 2.268-.5836.647 0 1.218.1075 1.712.3379.509.2303.94.5375 1.311.9214.401.4454.724.9676.94 1.5665s.324 1.2286.309 1.889zm-1.697-1.4129c0-.3686-.046-.7372-.154-1.0904s-.262-.645-.447-.9061c-.216-.2764-.478-.4914-.802-.645-.324-.1689-.71-.2457-1.157-.2457s-.833.0768-1.172.2457-.617.384-.848.6604c-.216.2764-.386.5836-.509.9214-.124.3379-.185.6911-.201 1.0597z"/><path d="m125 32.9796c-.144.0149-1.28.1345-1.712.1345s-.762-.1046-.964-.299c-.201-.2093-.316-.5382-.316-1.0016v-5.5465h2.129v-1.3754h-2.129v-2.8105h-1.597v1.779c0 .5681-.461 1.0465-1.036 1.0465h-.993v1.3754h2.029v5.7258c0 .314.043.6279.115.9419.086.3139.216.598.417.8372.187.2392.46.4335.806.583.345.1495 1.021.2243 1.539.2243.417 0 1.496-.1196 1.712-.1495z"/><path d="m114.457 28.7831c-.525-.092-.988-.1534-1.374-.1994-.385-.046-.71-.092-.987-.1226-.417-.0614-.741-.1841-.973-.3834-.231-.184-.355-.4907-.355-.9048 0-.276.093-.5213.263-.7667.169-.2454.416-.4294.725-.552.232-.1074.432-.1687.602-.1687.17-.0154.355-.0154.54-.0154.679 0 1.22.1687 1.606.5214.138.1227.262.3067.37.5061.062.1226.108.276.139.414h1.667c-.016-.276-.077-.5367-.17-.7514-.123-.2914-.293-.5674-.509-.8281-.34-.414-.772-.7207-1.312-.9354-.541-.1993-1.142-.3067-1.806-.3067-.618 0-1.173.092-1.667.2914-.494.1993-.896.46-1.22.7974-.216.2147-.416.506-.571.8434-.154.3373-.247.7054-.247 1.0734 0 .7514.216 1.3495.649 1.7942.432.4447 1.018.7207 1.759.8434l2.207.2913c.51.0614.88.2147 1.143.4601.262.2453.386.552.386.9354 0 .2147-.047.4294-.139.6134-.093.1993-.201.3374-.355.4447-.263.2147-.541.368-.849.4294-.309.0766-.618.1073-.957.1073-.309 0-.633-.0307-.957-.092s-.587-.184-.818-.3527c-.232-.184-.417-.3987-.556-.644-.108-.1994-.185-.4294-.216-.6901h-1.652c.016.3527.108.6901.247 1.0121.17.3987.402.736.695 1.0427.417.4141.895.7054 1.435.8588.541.1687 1.127.2453 1.745.2453.648 0 1.25-.092 1.805-.2606.556-.1687 1.019-.4601 1.39-.8435.231-.2453.416-.5367.555-.8587s.216-.7054.216-1.1348c0-.736-.247-1.3494-.725-1.8248-.432-.4754-1.034-.7667-1.729-.8894z"/></g><path d="m7.54573 21.5332c-1.61338-1.3708-4.50211-2.437-6.54573-2.9092 2.01289-1.5536 5.20893-2.2542 6.71475-2.5741 3.27285-9.6719 16.47185-9.59574 18.97645 1.4927.5532 2.4827 1.9975 4.9502 5.0246 4.9502 3.5955 0 4.9323-3.686 4.4713-7.3568-.0153-.0914.1076-.1218.1383-.0457 4.7326 9.5349-1.0295 21.2783-11.4627 22.7557-9.1271 1.2947-17.31697-5.727-17.31697-15.2923z" fill="#2e2a25" opacity=".07"/><path d="m4.75219 32.1926c.36342 0 .68141-.2587.74198-.6239.07571-.4108-.19685-.8064-.6057-.8825l-3.27075-.6087.3937-2.328 1.81709.3347c.04542.0152.09085.0152.13628.0152.36341 0 .6814-.2586.74197-.6238.07571-.4109-.19685-.8065-.60569-.8826l-1.83223-.3347 1.01454-6.0408c.31799.1217.63598.2435.95397.3652.52998.2282 1.04482.4717 1.54452.7456.24228.1369.48456.2891.71169.4412.12114.0761.22714.1522.33313.2435.01515.0152.03029.0304.03029.0304h.01514.03029.03028v.0152c-.03028.1979-.06057.3804-.06057.563v.137.1978c0 .1369 0 .2739.01514.4108.01515.5478.06057 1.0956.13628 1.6282.15143 1.0803.39371 2.1606.74198 3.1953.71169 2.0694 1.84737 3.9866 3.31618 5.5996.742.8064 1.5597 1.5368 2.4379 2.1606.8934.6239 1.8474 1.1717 2.8468 1.5825.7874.3348 1.6051.5934 2.4379.7912v.0153 4.5344c0 .426.3331.7608.7571.7608s.7571-.3348.7571-.7608v-4.2758c.7874.1065 1.59.1522 2.3774.137 1.06-.0152 2.1351-.1522 3.1799-.3804v4.367c0 .3956.318.7304.7268.7304.3937 0 .7269-.3196.7269-.7304v-4.6866c0-.0304 0-.0456-.0152-.076.5603-.1826 1.1205-.4109 1.6657-.6695.9842-.4565 1.9079-1.0347 2.7559-1.689s1.6354-1.4151 2.347-2.2368c1.3931-1.6433 2.4682-3.5606 3.1497-5.6147.3331-1.0195.5754-2.0846.7268-3.1498.1363-1.0651.1817-2.1607.106-3.2258-.1363-2.1607-.6966-4.2909-1.6354-6.2234l-.0151-.0304c0-.0152 0 0-.0303-.0609-.0606-.0913-.1666-.1978-.2877-.2434-.2574-.0913-.4997-.0152-.6663.1978-.0757.1065-.1211.2435-.106.3652v.0761.0304l.0152.0913c.0151.1217.0302.2435.0302.3804.0152.2435.0303.5021.0303.7456 0 .5021-.0303.989-.106 1.4912-.1514.9738-.4845 1.9172-1.0448 2.6628-.2877.3652-.6208.6847-1.0145.8977-.3786.2283-.8177.3652-1.272.4261-.4543.0456-.9388.0456-1.3931-.0457s-.8782-.2586-1.2568-.5021-.7268-.563-1.0145-.9434-.53-.7912-.7269-1.2325c-.1968-.4413-.3634-.913-.4845-1.3999-.0303-.1217-.0606-.2434-.0909-.3652l-.0908-.3956c-.0303-.1369-.0606-.2587-.106-.3956-.0303-.137-.0757-.2587-.106-.3956-.318-1.0347-.7571-2.0542-1.3326-2.9824-.5754-.9282-1.3022-1.7955-2.135-2.5106-.848-.7152-1.802-1.2934-2.8468-1.68902-1.0297-.39562-2.1351-.60864-3.2556-.62386-2.2108-.04565-4.4367.69994-6.1932 2.05418-.8783.6695-1.65054 1.4912-2.27138 2.4041-.56027.8065-.9994 1.689-1.34767 2.6172-1.07511.213-2.15022.4869-3.21018.8521-.06057.0152-.12114.0457-.18171.0609l1.16596-6.93857c2.19564-.04565 4.17929-1.71942 4.60328-4.0627.22714-1.27815-.04543-2.5563-.75712-3.62142-.71169-1.065131-1.7868-1.780287-3.02847-1.9933124-2.54392-.4564826-4.99698 1.3238024-5.466393 3.9714024-.4239859 2.40414.938823 4.70177 3.119323 5.44736l-1.31738 7.88194c-.52998.2587-1.04482.5782-1.544523.9434-.121139.0913-.211993.2282-.242277.3804-.090855.3652.136281.7456.499698.8369h.015142c.2877.0608.57541.1369.86311.213l-1.817079 10.8186c-.0757118.4109.196851.8065.605694.8826l3.997585.7456zm31.52641-16.8747c0-.0152 0-.0304 0 0zm-31.78383 2.5259c1.07511-.3956 2.21078-.6847 3.3616-.9434.212-.0457.39371-.1978.45428-.4108.31798-.9434.74197-1.8412 1.2871-2.6629.54515-.8216 1.22655-1.552 1.99875-2.1454 1.5446-1.2021 3.4979-1.88682 5.4513-1.85639.9842.01522 1.9534.19779 2.8619.54779s1.7717.8521 2.5288 1.476c.7571.639 1.3931 1.3998 1.923 2.2367.53.8369.9389 1.7651 1.2266 2.7237.0454.1217.0757.2435.106.3652s.0757.2434.0908.3652l.0909.3652c.0303.1369.0606.2738.0908.3956.1363.5325.318 1.0651.5452 1.5672.2271.5022.5148 1.0043.8782 1.4608s.7874.8521 1.2871 1.1716c.4997.3196 1.06.5326 1.6354.6391s1.1508.1217 1.7262.0456c.5754-.076 1.1508-.2586 1.6657-.563.5148-.3043.954-.7151 1.3022-1.1716.3483-.4717.6209-.9738.8177-1.5064.1969-.5326.3331-1.0803.4089-1.6281.0302-.213.0605-.4261.0757-.6239.3785 1.2021.6208 2.465.7117 3.728.2725 4.0475-1.0751 8.2167-3.7251 11.2751-.6662.7608-1.3931 1.4607-2.1956 2.0846-.8025.6086-1.6657 1.1412-2.5742 1.5673-1.8171.8521-3.831 1.2933-5.845 1.3238-.9993 0-2.0139-.0913-2.9981-.3044-.9843-.213-1.9383-.5325-2.8468-.9586-.9085-.426-1.7717-.9282-2.5742-1.5216-.8026-.5934-1.5445-1.2629-2.2259-2.0085-1.3326-1.4912-2.36224-3.2563-2.98308-5.1583-.31799-.9434-.54512-1.9324-.66626-2.9215-.06057-.5021-.106-1.0042-.12114-1.4911 0-.1218 0-.2435 0-.3804v-.4565c0-.3043-.03029-.6239-.06057-.913l-.06057-.0761c-.07571-.0913-.16657-.1978-.27256-.2891-.04543-.0456-.09086-.0913-.15143-.1369l-.07571-.0609c-.03028-.0304-.03028-.0304-.06057-.0456-.13628-.0913-.25742-.1978-.3937-.2739-.25742-.1826-.52998-.35-.80254-.5021-.54513-.3044-1.09025-.5783-1.66566-.8217-.65113-.2739-1.30225-.5326-1.98365-.7456.04542-.0304.10599-.0609.15142-.0761.54512-.2739 1.07511-.4869 1.60509-.6847zm-2.55906-13.54233c.27256-1.62812 1.65052-2.78454 3.1799-2.78454.18171 0 .34827.01521.52998.04564.83283.15217 1.55966.62386 2.04422 1.33902.48455.73037.66626 1.61291.51484 2.51065-.31799 1.81072-1.98365 3.04322-3.70988 2.7389-1.74137-.30432-2.87705-2.02374-2.55906-3.84967zm39.86989 38.92273c-.0303.1065-.0606.1978-.0758.3044-.0302.1065-.0757.1825-.1211.2738-.1817.35-.424.6543-.6663.8826-.2574.2434-.5299.4412-.8025.6238-.5451.3652-1.1205.6391-1.696.8826-.5754.2434-1.1659.4412-1.7413.6238-2.3471.7152-4.7547 1.1108-7.1624 1.3847-2.4076.2739-4.8152.3804-7.238.3804s-4.8304-.1217-7.2381-.4108c-2.4076-.2891-4.8152-.7-7.1623-1.476-.59055-.1978-1.16596-.4261-1.74137-.6999-.57541-.2739-1.15082-.5935-1.6808-1.0195-.27256-.213-.52998-.4717-.75712-.7913-.22714-.3043-.40884-.7303-.46941-1.1868-.03029-.2283-.01515-.4565.03028-.6847.04543-.2131.12114-.4261.22714-.6087.19685-.3652.45427-.6543.71169-.8977.52998-.4869 1.09025-.8065 1.66566-1.0956s1.15082-.5173 1.74137-.7151c1.1811-.3957 2.36221-.6848 3.55846-.913.3634-.0761.7117.1674.7874.5326.0606.3499-.1514.6999-.4997.776-1.1508.2586-2.27136.563-3.36161.9586-.54512.1978-1.05996.4108-1.55966.6695-.48455.2587-.95397.5478-1.31738.8825-.16657.1674-.31799.3348-.39371.5022-.07571.1673-.10599.3043-.09085.4412.01514.2739.28771.6543.68141.9586.3937.3196.87825.5935 1.37795.8217.4997.2435 1.04482.4413 1.58995.6239 1.09025.3652 2.2259.639 3.3767.8825 1.1509.2282 2.3168.4108 3.4828.563 2.3471.2891 4.7093.426 7.0715.4413 2.3622.0152 4.7395-.0913 7.0866-.3196 2.3471-.2434 4.6941-.6086 6.9201-1.2629.5602-.1674 1.1053-.35 1.6353-.563s1.0449-.4565 1.4991-.7456c.2272-.1522.4392-.3043.6209-.4717.1968-.1674.3331-.35.424-.5326.0151-.0456.0454-.0913.0605-.1369.0152-.0456.0303-.0913.0454-.1217 0-.0913.0303-.1674.0152-.2587-.0152-.1674-.0909-.35-.2271-.5326-.2726-.3804-.6966-.7151-1.166-1.0042s-.9843-.5326-1.5142-.7456c-1.0752-.4413-2.1957-.7608-3.3314-1.0347-.3028-.0761-.4845-.3804-.4088-.6695.0757-.3043.3634-.4869.6663-.4261 1.1811.2587 2.3622.5782 3.5281 1.0347.5754.2283 1.1508.4869 1.7111.8065.5451.3347 1.1054.7151 1.5445 1.3086.212.3043.4089.6695.4694 1.1107-.0605.2283-.0757.4413-.1059.6543zm-28.1346-26.6433c.53-1.05 1.7414-1.5064 2.7105-1.0195s1.3326 1.7346.8177 2.7845c-.53 1.0499-1.7414 1.5064-2.7105 1.0195-.9842-.4869-1.3476-1.7346-.8177-2.7845z" fill="#231f20"/></svg>